<svg viewBox="0 0 34.14 34" fill="none" xmlns="http://www.w3.org/2000/svg">
  <rect width="34.14" height="34" rx="8" fill="#0a0a0a"/>
  <path d="M17.1415 34C14.7474 34 12.513 33.5593 10.4381 32.6778C8.36326 31.7963 6.54377 30.5843 4.97965 29.0417C3.41553 27.4676 2.18658 25.6574 1.29279 23.6111C0.430931 21.5333 0 19.3139 0 16.9528C0 14.5917 0.430931 12.388 1.29279 10.3417C2.18658 8.29537 3.39957 6.50093 4.93177 4.95833C6.49589 3.38426 8.29942 2.17222 10.3423 1.32222C12.4172 0.440741 14.6517 0 17.0457 0C19.4398 0 21.6583 0.440741 23.7012 1.32222C25.7761 2.17222 27.5956 3.38426 29.1597 4.95833C30.7238 6.50093 31.9368 8.31111 32.7987 10.3889C33.6924 12.4352 34.1393 14.6389 34.1393 17C34.1393 19.3611 33.6924 21.5806 32.7987 23.6583C31.9368 25.7046 30.7238 27.4991 29.1597 29.0417C27.6275 30.5843 25.824 31.7963 23.7491 32.6778C21.7062 33.5593 19.5036 34 17.1415 34ZM17.0457 28.8056C19.3121 28.8056 21.2912 28.3019 22.983 27.2944C24.7067 26.287 26.0474 24.9019 27.005 23.1389C27.9946 21.3444 28.4893 19.2824 28.4893 16.9528C28.4893 15.2213 28.2021 13.6472 27.6275 12.2306C27.0848 10.7824 26.3028 9.53889 25.2813 8.5C24.2598 7.42963 23.0468 6.61111 21.6423 6.04445C20.2697 5.47778 18.7375 5.19444 17.0457 5.19444C14.8113 5.19444 12.8322 5.69815 11.1085 6.70556C9.41665 7.68148 8.07597 9.05093 7.08642 10.8139C6.1288 12.5769 5.64999 14.6231 5.64999 16.9528C5.64999 18.6843 5.92131 20.2898 6.46397 21.7694C7.03854 23.2176 7.8206 24.4611 8.81015 25.5C9.83162 26.5389 11.0446 27.3574 12.4491 27.9556C13.8536 28.5222 15.3858 28.8056 17.0457 28.8056Z" fill="#5ab4c8"/>
</svg>
